<svg width="32" height="32" viewBox="0 0 32 32" fill="none" xmlns="http://www.w3.org/2000/svg">
<path d="M16.2674 4.2666C9.64045 4.2666 4.26666 9.63898 4.26666 16.2673C4.26666 21.1796 7.22168 25.4019 11.451 27.2576C11.4171 26.4208 11.4454 25.4132 11.6584 24.5016C11.8899 23.5278 13.2023 17.9636 13.2023 17.9636C13.2023 17.9636 12.8198 17.1973 12.8198 16.0641C12.8198 14.286 13.8514 12.9581 15.1342 12.9581C16.225 12.9581 16.7528 13.778 16.7528 14.7602C16.7528 15.8567 16.0529 17.4979 15.693 19.0177C15.3924 20.292 16.3309 21.3292 17.5868 21.3292C19.8602 21.3292 21.3914 18.4095 21.3914 14.9493C21.3914 12.3202 19.6203 10.3516 16.3986 10.3516C12.7592 10.3516 10.4914 13.0653 10.4914 16.0966C10.4914 17.1437 10.799 17.8803 11.2817 18.4504C11.5046 18.7143 11.5343 18.8187 11.4538 19.1207C11.3974 19.3395 11.2647 19.8729 11.2097 20.0831C11.1292 20.3866 10.8837 20.4966 10.6099 20.3837C8.93204 19.6993 8.15165 17.8634 8.15165 15.7988C8.15165 12.3908 11.0262 8.30118 16.7274 8.30118C21.3095 8.30118 24.3252 11.6189 24.3252 15.1765C24.3252 19.8842 21.7089 23.4008 17.8493 23.4008C16.5553 23.4008 15.336 22.7009 14.9183 21.9064C14.9183 21.9064 14.2212 24.6709 14.0744 25.2043C13.8204 26.1287 13.3222 27.0544 12.8664 27.7741C13.946 28.093 15.0862 28.2666 16.2674 28.2666C22.8943 28.2666 28.2667 22.8942 28.2667 16.2673C28.2667 9.63898 22.8943 4.2666 16.2674 4.2666Z" fill="#64270C"/>
</svg>
