<svg width="16" height="17" viewBox="0 0 16 17" fill="none" xmlns="http://www.w3.org/2000/svg">
<path d="M2.5 8.00001C2.22386 8.00001 2 8.22386 2 8.50001C2 8.77615 2.22386 9.00001 2.5 9.00001L12.197 9L8.16552 12.6284C7.96026 12.8131 7.94362 13.1292 8.12835 13.3345C8.31308 13.5397 8.62923 13.5564 8.83448 13.3717L13.8345 8.87165C13.9398 8.77683 14 8.64175 14 8.5C14 8.35826 13.9398 8.22318 13.8345 8.12836L8.83448 3.62836C8.62923 3.44363 8.31308 3.46027 8.12835 3.66552C7.94362 3.87078 7.96026 4.18692 8.16552 4.37165L12.197 8L2.5 8.00001Z" fill="white"/>
</svg>
