<svg width="24" height="24" viewBox="0 0 24 24" fill="none" xmlns="http://www.w3.org/2000/svg">
<path d="M7.77178 2.43899L8.84837 2.09498C9.85719 1.77263 10.935 2.29358 11.3671 3.31232L12.2268 5.33967C12.6015 6.22312 12.3936 7.26203 11.7128 7.90815L9.8185 9.70616C9.93538 10.7816 10.2969 11.8406 10.903 12.8832C11.5092 13.9257 12.2662 14.7905 13.1741 15.4776L15.4493 14.7189C16.3117 14.4313 17.2509 14.7618 17.7799 15.539L19.0122 17.3495C19.6272 18.2529 19.5166 19.4993 18.7535 20.2653L17.9358 21.0862C17.1219 21.9033 15.9594 22.1997 14.884 21.8643C12.3451 21.0723 10.0108 18.7211 7.88101 14.8107C5.74814 10.8945 4.99539 7.57189 5.62277 4.84289C5.88676 3.69457 6.70428 2.78009 7.77178 2.43899Z" fill="#64270C"/>
</svg>
