<svg width="20" height="21" viewBox="0 0 20 21" fill="none" xmlns="http://www.w3.org/2000/svg">
<path d="M2.99707 3.99658C2.99707 3.72044 3.22093 3.49658 3.49707 3.49658H3.93543C4.66237 3.49658 5.07976 3.96966 5.32152 4.44123C5.4872 4.76438 5.6065 5.15862 5.70508 5.5H15.9999C16.6634 5.5 17.1429 6.13441 16.9619 6.77278L15.4664 12.0473C15.2225 12.9078 14.4368 13.5017 13.5423 13.5017H8.46306C7.56125 13.5017 6.77099 12.8982 6.5336 12.0282L5.89118 9.67387C5.88723 9.66317 5.88361 9.65226 5.88034 9.64116L4.851 6.14339C4.81568 6.02734 4.78318 5.91488 4.7518 5.80629C4.65195 5.46076 4.56346 5.15454 4.43165 4.89745C4.2723 4.58662 4.12597 4.49658 3.93543 4.49658H3.49707C3.22093 4.49658 2.99707 4.27272 2.99707 3.99658ZM8.5 17.5C9.32843 17.5 10 16.8284 10 16C10 15.1716 9.32843 14.5 8.5 14.5C7.67157 14.5 7 15.1716 7 16C7 16.8284 7.67157 17.5 8.5 17.5ZM13.5 17.5C14.3284 17.5 15 16.8284 15 16C15 15.1716 14.3284 14.5 13.5 14.5C12.6716 14.5 12 15.1716 12 16C12 16.8284 12.6716 17.5 13.5 17.5Z" fill="#64270C"/>
</svg>
