<svg width="16" height="17" viewBox="0 0 16 17" fill="none" xmlns="http://www.w3.org/2000/svg">
<path d="M2.5 2.5C2.22386 2.5 2 2.72386 2 3C2 3.27614 2.22386 3.5 2.5 3.5H2.7457C2.96894 3.5 3.16513 3.64799 3.22646 3.86264L4.81202 9.41208C4.996 10.056 5.58458 10.5 6.2543 10.5H10.823C11.4363 10.5 11.9879 10.1266 12.2157 9.55709L13.69 5.87139C13.9527 5.21453 13.4689 4.5 12.7615 4.5H4.44858L4.18798 3.58792C4.004 2.94397 3.41542 2.5 2.7457 2.5H2.5ZM5.77354 9.13736L4.73429 5.5H12.7615L11.2872 9.1857C11.2113 9.37552 11.0274 9.5 10.823 9.5H6.2543C6.03106 9.5 5.83487 9.35201 5.77354 9.13736ZM6.5 14.5C7.32843 14.5 8 13.8284 8 13C8 12.1716 7.32843 11.5 6.5 11.5C5.67157 11.5 5 12.1716 5 13C5 13.8284 5.67157 14.5 6.5 14.5ZM6.5 13.5C6.22386 13.5 6 13.2761 6 13C6 12.7239 6.22386 12.5 6.5 12.5C6.77614 12.5 7 12.7239 7 13C7 13.2761 6.77614 13.5 6.5 13.5ZM10.5 14.5C11.3284 14.5 12 13.8284 12 13C12 12.1716 11.3284 11.5 10.5 11.5C9.67157 11.5 9 12.1716 9 13C9 13.8284 9.67157 14.5 10.5 14.5ZM10.5 13.5C10.2239 13.5 10 13.2761 10 13C10 12.7239 10.2239 12.5 10.5 12.5C10.7761 12.5 11 12.7239 11 13C11 13.2761 10.7761 13.5 10.5 13.5Z" fill="#EF9635"/>
</svg>
