<svg width="17" height="17" viewBox="0 0 17 17" fill="none" xmlns="http://www.w3.org/2000/svg">
<path d="M3 2.5C2.72386 2.5 2.5 2.72386 2.5 3C2.5 3.27614 2.72386 3.5 3 3.5H3.2457C3.46894 3.5 3.66513 3.64799 3.72646 3.86264L5.31202 9.41208C5.496 10.056 6.08458 10.5 6.7543 10.5H11.323C11.9363 10.5 12.4879 10.1266 12.7157 9.55709L14.19 5.87139C14.4527 5.21453 13.9689 4.5 13.2615 4.5H4.94858L4.68798 3.58792C4.504 2.94397 3.91542 2.5 3.2457 2.5H3ZM6.27354 9.13736L5.23429 5.5H13.2615L11.7872 9.1857C11.7113 9.37552 11.5274 9.5 11.323 9.5H6.7543C6.53106 9.5 6.33487 9.35201 6.27354 9.13736ZM7 14.5C7.82843 14.5 8.5 13.8284 8.5 13C8.5 12.1716 7.82843 11.5 7 11.5C6.17157 11.5 5.5 12.1716 5.5 13C5.5 13.8284 6.17157 14.5 7 14.5ZM7 13.5C6.72386 13.5 6.5 13.2761 6.5 13C6.5 12.7239 6.72386 12.5 7 12.5C7.27614 12.5 7.5 12.7239 7.5 13C7.5 13.2761 7.27614 13.5 7 13.5ZM11 14.5C11.8284 14.5 12.5 13.8284 12.5 13C12.5 12.1716 11.8284 11.5 11 11.5C10.1716 11.5 9.5 12.1716 9.5 13C9.5 13.8284 10.1716 14.5 11 14.5ZM11 13.5C10.7239 13.5 10.5 13.2761 10.5 13C10.5 12.7239 10.7239 12.5 11 12.5C11.2761 12.5 11.5 12.7239 11.5 13C11.5 13.2761 11.2761 13.5 11 13.5Z" fill="#64270C"/>
</svg>
