<svg width="16" height="17" viewBox="0 0 16 17" fill="none" xmlns="http://www.w3.org/2000/svg">
<path d="M2.58859 3.21569L2.64645 3.14645C2.82001 2.97288 3.08944 2.9536 3.28431 3.08859L3.35355 3.14645L8 7.793L12.6464 3.14645C12.8417 2.95118 13.1583 2.95118 13.3536 3.14645C13.5488 3.34171 13.5488 3.65829 13.3536 3.85355L8.707 8.5L13.3536 13.1464C13.5271 13.32 13.5464 13.5894 13.4114 13.7843L13.3536 13.8536C13.18 14.0271 12.9106 14.0464 12.7157 13.9114L12.6464 13.8536L8 9.207L3.35355 13.8536C3.15829 14.0488 2.84171 14.0488 2.64645 13.8536C2.45118 13.6583 2.45118 13.3417 2.64645 13.1464L7.293 8.5L2.64645 3.85355C2.47288 3.67999 2.4536 3.41056 2.58859 3.21569L2.64645 3.14645L2.58859 3.21569Z" fill="#64270C"/>
</svg>
