<svg width="16" height="17" viewBox="0 0 16 17" fill="none" xmlns="http://www.w3.org/2000/svg">
<path d="M2 4.0813C2 3.80516 2.22386 3.5813 2.5 3.5813H13.5C13.7761 3.5813 14 3.80516 14 4.0813C14 4.35744 13.7761 4.5813 13.5 4.5813H2.5C2.22386 4.5813 2 4.35744 2 4.0813ZM4 8.0813C4 7.80516 4.22386 7.5813 4.5 7.5813H11.5C11.7761 7.5813 12 7.80516 12 8.0813C12 8.35744 11.7761 8.5813 11.5 8.5813H4.5C4.22386 8.5813 4 8.35744 4 8.0813ZM6 12.0813C6 11.8052 6.22386 11.5813 6.5 11.5813H9.5C9.77614 11.5813 10 11.8052 10 12.0813C10 12.3574 9.77614 12.5813 9.5 12.5813H6.5C6.22386 12.5813 6 12.3574 6 12.0813Z" fill="white"/>
</svg>
