<svg width="17" height="17" viewBox="0 0 17 17" fill="none" xmlns="http://www.w3.org/2000/svg">
<path d="M8.89732 14.0234L13.8927 8.98073C15.2403 7.61205 15.236 5.4016 13.8792 4.03119C12.549 2.68754 10.417 2.6528 9.05837 3.93389C9.02908 3.96151 9.00014 3.98974 8.97159 4.01859L8.49449 4.50141L8.01085 4.01291C7.98433 3.98613 7.9575 3.95987 7.93036 3.93413C6.56886 2.64301 4.43333 2.66275 3.10907 4.00032C1.75842 5.36456 1.76501 7.58123 3.12153 8.9514L8.14304 14.0234C8.35133 14.2338 8.68903 14.2338 8.89732 14.0234ZM9.54009 4.58144C10.5773 3.53428 12.2621 3.53483 13.3107 4.59404C14.3603 5.65419 14.3619 7.36307 13.3235 8.41865L13.3227 8.41946L8.52024 13.2673L3.69004 8.38855C2.63936 7.3273 2.63838 5.61282 3.67758 4.56317C4.71229 3.51805 6.39597 3.51887 7.44234 4.57576L8.21051 5.35165C8.36714 5.50986 8.6228 5.50974 8.77928 5.35138L9.54009 4.58144Z" fill="#E55F25"/>
</svg>
