<svg width="32" height="32" viewBox="0 0 32 32" fill="none" xmlns="http://www.w3.org/2000/svg">
<path fill-rule="evenodd" clip-rule="evenodd" d="M16 4C12.741 4 12.3323 4.01381 11.0524 4.07221C9.77516 4.13047 8.90283 4.33334 8.13954 4.63001C7.35044 4.93663 6.68123 5.34695 6.01406 6.01406C5.34695 6.68123 4.93663 7.35044 4.63001 8.13954C4.33334 8.90283 4.13047 9.77516 4.07221 11.0524C4.01381 12.3323 4 12.741 4 16C4 19.259 4.01381 19.6677 4.07221 20.9476C4.13047 22.2248 4.33334 23.0972 4.63001 23.8605C4.93663 24.6496 5.34695 25.3188 6.01406 25.9859C6.68123 26.6531 7.35044 27.0634 8.13954 27.37C8.90283 27.6667 9.77516 27.8695 11.0524 27.9278C12.3323 27.9862 12.741 28 16 28C19.259 28 19.6677 27.9862 20.9476 27.9278C22.2248 27.8695 23.0972 27.6667 23.8605 27.37C24.6496 27.0634 25.3188 26.6531 25.9859 25.9859C26.6531 25.3188 27.0634 24.6496 27.37 23.8605C27.6667 23.0972 27.8695 22.2248 27.9278 20.9476C27.9862 19.6677 28 19.259 28 16C28 12.741 27.9862 12.3323 27.9278 11.0524C27.8695 9.77516 27.6667 8.90283 27.37 8.13954C27.0634 7.35044 26.6531 6.68123 25.9859 6.01406C25.3188 5.34695 24.6496 4.93663 23.8605 4.63001C23.0972 4.33334 22.2248 4.13047 20.9476 4.07221C19.6677 4.01381 19.259 4 16 4ZM16 6.16208C19.2041 6.16208 19.5837 6.17432 20.849 6.23205C22.019 6.2854 22.6544 6.48089 23.0773 6.64523C23.6374 6.86292 24.0371 7.12295 24.457 7.54289C24.877 7.96279 25.137 8.36253 25.3547 8.92266C25.519 9.34551 25.7145 9.9809 25.7679 11.1509C25.8256 12.4162 25.8378 12.7958 25.8378 15.9999C25.8378 19.204 25.8256 19.5836 25.7679 20.8489C25.7145 22.0189 25.519 22.6543 25.3547 23.0772C25.137 23.6373 24.877 24.037 24.457 24.4569C24.0371 24.8769 23.6374 25.1369 23.0773 25.3546C22.6544 25.5189 22.019 25.7144 20.849 25.7678C19.5839 25.8255 19.2044 25.8378 16 25.8378C12.7956 25.8378 12.4162 25.8255 11.151 25.7678C9.98098 25.7144 9.34559 25.5189 8.92274 25.3546C8.36261 25.1369 7.96286 24.8769 7.54297 24.4569C7.12308 24.037 6.86299 23.6373 6.64531 23.0772C6.48097 22.6543 6.28548 22.0189 6.23213 20.8489C6.1744 19.5836 6.16215 19.204 6.16215 15.9999C6.16215 12.7958 6.1744 12.4162 6.23213 11.1509C6.28548 9.9809 6.48097 9.34551 6.64531 8.92266C6.86299 8.36253 7.12303 7.96279 7.54297 7.54289C7.96286 7.12295 8.36261 6.86292 8.92274 6.64523C9.34559 6.48089 9.98098 6.2854 11.151 6.23205C12.4163 6.17432 12.7959 6.16208 16 6.16208ZM9.83785 16C9.83785 12.5966 12.5967 9.83777 16 9.83777C19.4033 9.83777 22.1622 12.5966 22.1622 16C22.1622 19.4032 19.4033 22.1621 16 22.1621C12.5967 22.1621 9.83785 19.4032 9.83785 16ZM16 19.9999C13.7909 19.9999 12 18.2091 12 15.9999C12 13.7908 13.7909 11.9999 16 11.9999C18.2092 11.9999 20 13.7908 20 15.9999C20 18.2091 18.2092 19.9999 16 19.9999ZM22.4054 11.0341C23.2007 11.0341 23.8455 10.3894 23.8455 9.59412C23.8455 8.79882 23.2007 8.15409 22.4054 8.15409C21.6102 8.15409 20.9655 8.79882 20.9655 9.59412C20.9655 10.3894 21.6102 11.0341 22.4054 11.0341Z" fill="#64270C"/>
</svg>
