<svg width="24" height="24" viewBox="0 0 24 24" fill="none" xmlns="http://www.w3.org/2000/svg">
<path d="M18.157 16.8823L16.97 18.0562C16.0952 18.9149 14.96 20.0188 13.5642 21.3684C12.6919 22.2118 11.3081 22.2117 10.436 21.3682L6.9449 17.9723C6.50614 17.5415 6.13887 17.1782 5.84303 16.8823C2.44262 13.4819 2.44262 7.96878 5.84303 4.56837C9.24344 1.16796 14.7566 1.16796 18.157 4.56837C21.5574 7.96878 21.5574 13.4819 18.157 16.8823ZM14.5002 11.0001C14.5002 9.61924 13.3808 8.49986 12 8.49986C10.6192 8.49986 9.49982 9.61924 9.49982 11.0001C9.49982 12.3809 10.6192 13.5003 12 13.5003C13.3808 13.5003 14.5002 12.3809 14.5002 11.0001Z" fill="#64270C"/>
</svg>
