<svg width="16" height="17" viewBox="0 0 16 17" fill="none" xmlns="http://www.w3.org/2000/svg">
<path d="M9.30887 10.516C8.53903 11.1318 7.56252 11.5 6.5 11.5C4.01472 11.5 2 9.48531 2 7.00002C2 4.51473 4.01472 2.5 6.5 2.5C8.98528 2.5 11 4.51473 11 7.00002C11 8.06252 10.6318 9.03901 10.016 9.80885L13.8536 13.6464C14.0488 13.8417 14.0488 14.1583 13.8536 14.3536C13.6583 14.5488 13.3417 14.5488 13.1464 14.3536L9.30887 10.516ZM10 7.00002C10 5.06701 8.433 3.5 6.5 3.5C4.567 3.5 3 5.06701 3 7.00002C3 8.93302 4.567 10.5 6.5 10.5C8.433 10.5 10 8.93302 10 7.00002Z" fill="#64270C"/>
</svg>
