<svg width="32" height="32" viewBox="0 0 32 32" fill="none" xmlns="http://www.w3.org/2000/svg">
<path fill-rule="evenodd" clip-rule="evenodd" d="M27.0727 8.40389C27.7919 9.15169 28.0267 10.8498 28.0267 10.8498C28.0267 10.8498 28.2667 12.8445 28.2667 14.8383V16.7082C28.2667 18.7028 28.0267 20.6967 28.0267 20.6967C28.0267 20.6967 27.7919 22.3949 27.0727 23.1427C26.2504 24.0273 25.3386 24.1187 24.8232 24.1703C24.7665 24.176 24.7146 24.1812 24.6682 24.187C21.3097 24.4365 16.2667 24.4442 16.2667 24.4442C16.2667 24.4442 10.0267 24.3856 8.10666 24.1962C8.01569 24.1787 7.90542 24.1652 7.78054 24.1498C7.17236 24.0749 6.21779 23.9573 5.45991 23.1427C4.74066 22.3949 4.50666 20.6967 4.50666 20.6967C4.50666 20.6967 4.26666 18.7028 4.26666 16.7082V14.8383C4.26666 12.8445 4.50666 10.8498 4.50666 10.8498C4.50666 10.8498 4.74066 9.15169 5.45991 8.40389C6.28406 7.51802 7.19672 7.42761 7.71214 7.37655C7.76803 7.37101 7.81924 7.36594 7.86516 7.36036C11.2237 7.11084 16.2614 7.11084 16.2614 7.11084H16.2719C16.2719 7.11084 21.3097 7.11084 24.6682 7.36036C24.7141 7.36595 24.7653 7.37103 24.8213 7.37657C25.3363 7.42764 26.2493 7.51816 27.0727 8.40389ZM13.7879 12.0497L13.7886 18.9739L20.2724 15.5237L13.7879 12.0497Z" fill="#64270C"/>
</svg>
